{
  "accessors": [
    {
      "bufferView": 2,
      "componentType": 5126,
      "count": 5746,
      "max": [
        28.201229095458984,
        3.090970039367676,
        53.909061431884766
      ],
      "min": [
        -28.201229095458984,
        -17.79347038269043,
        -43.96397018432617
      ],
      "type": "VEC3"
    },
    {
      "bufferView": 2,
      "byteOffset": 68952,
      "componentType": 5126,
      "count": 5746,
      "max": [
        0.9999851584434509,
        0.9999999403953552,
        0.999995768070221
      ],
      "min": [
        -0.9999851584434509,
        -0.9999999403953552,
        -0.9999995827674866
      ],
      "type": "VEC3"
    },
    {
      "bufferView": 1,
      "componentType": 5126,
      "count": 5746,
      "max": [
        0.9980700016021729,
        0.5645300149917603
      ],
      "min": [
        0.9515299797058105,
        0.45917001366615295
      ],
      "type": "VEC2"
    },
    {
      "bufferView": 0,
      "componentType": 5125,
      "count": 34368,
      "type": "SCALAR"
    },
    {
      "bufferView": 2,
      "byteOffset": 137904,
      "componentType": 5126,
      "count": 11906,
      "max": [
        123.54078674316406,
        2.261970043182373,
        93.9535903930664
      ],
      "min": [
        2.7962300777435303,
        0.0,
        -76.1863784790039
      ],
      "type": "VEC3"
    },
    {
      "bufferView": 2,
      "byteOffset": 280776,
      "componentType": 5126,
      "count": 11906,
      "max": [
        1.0,
        1.0,
        0.9999978542327881
      ],
      "min": [
        -0.9998859763145447,
        -1.0,
        -0.9999986886978149
      ],
      "type": "VEC3"
    },
    {
      "bufferView": 1,
      "byteOffset": 45968,
      "componentType": 5126,
      "count": 11906,
      "max": [
        0.9761300086975098,
        0.8799499869346619
      ],
      "min": [
        0.11005999892950058,
        0.042479999363422394
      ],
      "type": "VEC2"
    },
    {
      "bufferView": 0,
      "byteOffset": 137472,
      "componentType": 5125,
      "count": 20016,
      "type": "SCALAR"
    },
    {
      "bufferView": 2,
      "byteOffset": 423648,
      "componentType": 5126,
      "count": 11906,
      "max": [
        -2.7962300777435303,
        2.261970043182373,
        93.9535903930664
      ],
      "min": [
        -123.54078674316406,
        0.0,
        -76.1863784790039
      ],
      "type": "VEC3"
    },
    {
      "bufferView": 2,
      "byteOffset": 566520,
      "componentType": 5126,
      "count": 11906,
      "max": [
        0.9998859763145447,
        1.0,
        0.9999978542327881
      ],
      "min": [
        -1.0,
        -1.0,
        -0.9999986886978149
      ],
      "type": "VEC3"
    },
    {
      "bufferView": 1,
      "byteOffset": 141216,
      "componentType": 5126,
      "count": 11906,
      "max": [
        0.9761300086975098,
        0.8799499869346619
      ],
      "min": [
        0.11005999892950058,
        0.042479999363422394
      ],
      "type": "VEC2"
    },
    {
      "bufferView": 0,
      "byteOffset": 217536,
      "componentType": 5125,
      "count": 20016,
      "type": "SCALAR"
    },
    {
      "bufferView": 3,
      "componentType": 5126,
      "count": 31,
      "max": [
        1.25
      ],
      "min": [
        0.0
      ],
      "type": "SCALAR"
    },
    {
      "bufferView": 4,
      "componentType": 5126,
      "count": 31,
      "max": [
        0.0,
        0.0,
        0.0
      ],
      "min": [
        0.0,
        0.0,
        -0.19950999319553375
      ],
      "type": "VEC3"
    },
    {
      "bufferView": 3,
      "byteOffset": 124,
      "componentType": 5126,
      "count": 1,
      "max": [
        0.0
      ],
      "min": [
        0.0
      ],
      "type": "SCALAR"
    },
    {
      "bufferView": 5,
      "componentType": 5126,
      "count": 1,
      "max": [
        0.7808005213737488,
        0.0,
        0.0,
        0.6247804164886475
      ],
      "min": [
        0.7808005213737488,
        0.0,
        0.0,
        0.6247804164886475
      ],
      "type": "VEC4"
    },
    {
      "bufferView": 3,
      "byteOffset": 128,
      "componentType": 5126,
      "count": 31,
      "max": [
        1.25
      ],
      "min": [
        0.0
      ],
      "type": "SCALAR"
    },
    {
      "bufferView": 5,
      "byteOffset": 16,
      "componentType": 5126,
      "count": 31,
      "max": [
        0.009180045686662197,
        0.0036699899937957525,
        0.39804890751838684,
        0.9999449849128723
      ],
      "min": [
        0.007979965768754482,
        -0.004619980230927467,
        -0.5008478760719299,
        0.8654862642288208
      ],
      "type": "VEC4"
    },
    {
      "bufferView": 3,
      "byteOffset": 252,
      "componentType": 5126,
      "count": 31,
      "max": [
        1.25
      ],
      "min": [
        0.0
      ],
      "type": "SCALAR"
    },
    {
      "bufferView": 5,
      "byteOffset": 512,
      "componentType": 5126,
      "count": 31,
      "max": [
        0.009189959615468979,
        0.004360008053481579,
        0.47237086296081543,
        0.9999253749847412
      ],
      "min": [
        0.00813001487404108,
        -0.0034100015182048082,
        -0.3694101572036743,
        0.8813516497612
      ],
      "type": "VEC4"
    }
  ],
  "animations": [
    {
      "channels": [
        {
          "sampler": 0,
          "target": {
            "node": 6,
            "path": "translation"
          }
        },
        {
          "sampler": 1,
          "target": {
            "node": 6,
            "path": "rotation"
          }
        },
        {
          "sampler": 2,
          "target": {
            "node": 8,
            "path": "rotation"
          }
        },
        {
          "sampler": 3,
          "target": {
            "node": 10,
            "path": "rotation"
          }
        }
      ],
      "name": "Take 01",
      "samplers": [
        {
          "input": 12,
          "interpolation": "LINEAR",
          "output": 13
        },
        {
          "input": 14,
          "interpolation": "LINEAR",
          "output": 15
        },
        {
          "input": 16,
          "interpolation": "LINEAR",
          "output": 17
        },
        {
          "input": 18,
          "interpolation": "LINEAR",
          "output": 19
        }
      ]
    }
  ],
  "asset": {
    "extras": {
      "author": "Erina eka syaharani (https://sketchfab.com/erinaekasyaharani)",
      "license": "CC-BY-4.0 (http://creativecommons.org/licenses/by/4.0/)",
      "source": "https://sketchfab.com/3d-models/blue-butterfly-4fe9c2835522458a822b5b784a680de4",
      "title": "blue butterfly"
    },
    "generator": "Sketchfab-15.55.0",
    "version": "2.0"
  },
  "bufferViews": [
    {
      "buffer": 0,
      "byteLength": 297600,
      "name": "floatBufferViews",
      "target": 34963
    },
    {
      "buffer": 0,
      "byteLength": 236464,
      "byteOffset": 297600,
      "byteStride": 8,
      "name": "floatBufferViews",
      "target": 34962
    },
    {
      "buffer": 0,
      "byteLength": 709392,
      "byteOffset": 534064,
      "byteStride": 12,
      "name": "floatBufferViews",
      "target": 34962
    },
    {
      "buffer": 0,
      "byteLength": 376,
      "byteOffset": 1243456,
      "name": "floatBufferViews"
    },
    {
      "buffer": 0,
      "byteLength": 372,
      "byteOffset": 1243832,
      "byteStride": 12,
      "name": "floatBufferViews"
    },
    {
      "buffer": 0,
      "byteLength": 1008,
      "byteOffset": 1244204,
      "byteStride": 16,
      "name": "floatBufferViews"
    }
  ],
  "buffers": [
    {
      "byteLength": 1245212,
      "uri": "scene.bin"
    }
  ],
  "extensionsUsed": [
    "KHR_materials_specular"
  ],
  "images": [
    {
      "uri": "textures/mat1_baseColor.png"
    }
  ],
  "materials": [
    {
      "doubleSided": true,
      "extensions": {
        "KHR_materials_specular": {
          "specularColorFactor": [
            1.0,
            1.0,
            1.0
          ],
          "specularFactor": 0.24228645268252244
        }
      },
      "name": "mat1",
      "pbrMetallicRoughness": {
        "baseColorTexture": {
          "index": 0
        },
        "metallicFactor": 0.7542880130682302,
        "roughnessFactor": 0.2335214735892529
      }
    }
  ],
  "meshes": [
    {
      "name": "Mesh.009_0",
      "primitives": [
        {
          "attributes": {
            "NORMAL": 1,
            "POSITION": 0,
            "TEXCOORD_0": 2
          },
          "indices": 3,
          "material": 0,
          "mode": 4
        }
      ]
    },
    {
      "name": "Mesh.013_0",
      "primitives": [
        {
          "attributes": {
            "NORMAL": 5,
            "POSITION": 4,
            "TEXCOORD_0": 6
          },
          "indices": 7,
          "material": 0,
          "mode": 4
        }
      ]
    },
    {
      "name": "Mesh_0",
      "primitives": [
        {
          "attributes": {
            "NORMAL": 9,
            "POSITION": 8,
            "TEXCOORD_0": 10
          },
          "indices": 11,
          "material": 0,
          "mode": 4
        }
      ]
    }
  ],
  "nodes": [
    {
      "children": [
        1
      ],
      "matrix": [
        1.0,
        0.0,
        0.0,
        0.0,
        0.0,
        2.220446049250313e-16,
        -1.0,
        0.0,
        0.0,
        1.0,
        2.220446049250313e-16,
        0.0,
        0.0,
        0.0,
        0.0,
        1.0
      ],
      "name": "Sketchfab_model"
    },
    {
      "children": [
        2,
        4,
        6
      ],
      "name": "Root"
    },
    {
      "children": [
        3
      ],
      "matrix": [
        -0.29086000000000006,
        0.9551700000000001,
        -0.05519000000000001,
        0.0,
        -0.7711,
        -0.19988000000000003,
        0.6045200000000001,
        0.0,
        0.5663900000000001,
        0.21839000000000003,
        0.7946700000000001,
        0.0,
        -2.91723,
        -6.34436,
        3.84417,
        1.0
      ],
      "name": "Lamp"
    },
    {
      "name": "Lamp"
    },
    {
      "children": [
        5
      ],
      "matrix": [
        -0.030850000000000006,
        0.9551700000000001,
        -0.29444000000000004,
        0.0,
        -0.8008500000000001,
        -0.19988000000000003,
        -0.56452,
        0.0,
        -0.5980700000000001,
        0.21839000000000003,
        0.77112,
        0.0,
        -3.5234900000000002,
        -5.98479,
        5.76567,
        1.0
      ],
      "name": "Lamp.001"
    },
    {
      "name": "Lamp.001"
    },
    {
      "children": [
        7,
        8,
        10
      ],
      "name": "Mesh.009",
      "rotation": [
        0.7808005213737488,
        0.0,
        0.0,
        0.6247804164886475
      ],
      "scale": [
        0.002839999971911311,
        0.002839999971911311,
        0.002839999971911311
      ]
    },
    {
      "mesh": 0,
      "name": "Mesh.009_0"
    },
    {
      "children": [
        9
      ],
      "name": "Mesh.013",
      "rotation": [
        0.007979965768754482,
        -0.00461997976526618,
        -0.5008478760719299,
        0.8654863238334656
      ]
    },
    {
      "mesh": 1,
      "name": "Mesh.013_0"
    },
    {
      "children": [
        11
      ],
      "name": "Mesh",
      "rotation": [
        0.008130015805363655,
        0.004360008519142866,
        0.4723708927631378,
        0.8813516497612
      ]
    },
    {
      "mesh": 2,
      "name": "Mesh_0"
    }
  ],
  "samplers": [
    {
      "magFilter": 9729,
      "minFilter": 9987,
      "wrapS": 10497,
      "wrapT": 10497
    }
  ],
  "scene": 0,
  "scenes": [
    {
      "name": "Sketchfab_Scene",
      "nodes": [
        0
      ]
    }
  ],
  "textures": [
    {
      "sampler": 0,
      "source": 0
    }
  ]
}
